<svg width="54" height="66" viewBox="0 0 54 66" fill="none" xmlns="http://www.w3.org/2000/svg">
<g clip-path="url(#clip0_1317_29)">
<g filter="url(#filter0_d_1317_29)">
<path d="M3.5 63V3H9.5V57H41.5V63H3.5Z" fill="white"/>
<path d="M8.5 57V58H9.5H40.5V62H4.5V4H8.5V57Z" stroke="white" stroke-width="2"/>
</g>
<g filter="url(#filter1_d_1317_29)">
<path fill-rule="evenodd" clip-rule="evenodd" d="M12.5 53.9997H18.5V48H44.5V62.9997H50.5V26.9996C50.5 1.99991 12.5 1.00001 12.5 26.9997V53.9997ZM18.5 26.9997C18.5 9 44.5 9 44.5 26.9997V42H18.5V26.9997Z" fill="url(#paint0_linear_1317_29)"/>
</g>
</g>
<defs>
<filter id="filter0_d_1317_29" x="-0.5" y="-1" width="46" height="68" filterUnits="userSpaceOnUse" color-interpolation-filters="sRGB">
<feFlood flood-opacity="0" result="BackgroundImageFix"/>
<feColorMatrix in="SourceAlpha" type="matrix" values="0 0 0 0 0 0 0 0 0 0 0 0 0 0 0 0 0 0 127 0" result="hardAlpha"/>
<feOffset/>
<feGaussianBlur stdDeviation="2"/>
<feComposite in2="hardAlpha" operator="out"/>
<feColorMatrix type="matrix" values="0 0 0 0 0 0 0 0 0 0 0 0 0 0 0 0 0 0 0.1 0"/>
<feBlend mode="normal" in2="BackgroundImageFix" result="effect1_dropShadow_1317_29"/>
<feBlend mode="normal" in="SourceGraphic" in2="effect1_dropShadow_1317_29" result="shape"/>
</filter>
<filter id="filter1_d_1317_29" x="8.5" y="3.87305" width="46" height="63.1267" filterUnits="userSpaceOnUse" color-interpolation-filters="sRGB">
<feFlood flood-opacity="0" result="BackgroundImageFix"/>
<feColorMatrix in="SourceAlpha" type="matrix" values="0 0 0 0 0 0 0 0 0 0 0 0 0 0 0 0 0 0 127 0" result="hardAlpha"/>
<feOffset/>
<feGaussianBlur stdDeviation="2"/>
<feComposite in2="hardAlpha" operator="out"/>
<feColorMatrix type="matrix" values="0 0 0 0 0 0 0 0 0 0 0 0 0 0 0 0 0 0 0.1 0"/>
<feBlend mode="normal" in2="BackgroundImageFix" result="effect1_dropShadow_1317_29"/>
<feBlend mode="normal" in="SourceGraphic" in2="effect1_dropShadow_1317_29" result="shape"/>
</filter>
<linearGradient id="paint0_linear_1317_29" x1="12.5" y1="35" x2="50.5" y2="35" gradientUnits="userSpaceOnUse">
<stop stop-color="#332168"/>
<stop offset="1" stop-color="#3D29B5"/>
</linearGradient>
<clipPath id="clip0_1317_29">
<rect width="54" height="66" fill="white"/>
</clipPath>
</defs>
</svg>
